# xmcd
#
# Track frame offsets:
#	182
#	11452
#	28997
#	51972
#	72925
#	93072
#	109445
#	132675
#	152632
#	172150
#
# Disc length: 2576 seconds
# Revision: 0
# Processed by: cddbd v1.5.2PL0 Copyright (c) Steve Scherf et al.
# Submitted via: dBpowerAMP V12.0
#
DISCID=8b0a0e0a
DTITLE=王菲 - Di-Dar [dB]
DYEAR=1995
DGENRE=Pop
TTITLE0=Di-Dar
TTITLE1=假期
TTITLE2=迷路
TTITLE3=曖昧
TTITLE4=或者
TTITLE5=我想
TTITLE6=享受
TTITLE7=一半
TTITLE8=無題
TTITLE9=流星
EXTD=
EXTT0=
EXTT1=
EXTT2=
EXTT3=
EXTT4=
EXTT5=
EXTT6=
EXTT7=
EXTT8=
EXTT9=
PLAYORDER=
